<svg width="741" height="402" viewBox="0 0 741 402" fill="none" xmlns="http://www.w3.org/2000/svg">
<g filter="url(#filter0_d_7_61)">
<path d="M4.69389 1.54545H22.3679L36.2067 28.9354H36.782L50.6207 1.54545H68.2947L44.3565 45.1392V67H28.6321V45.1392L4.69389 1.54545ZM132.399 34.2727C132.399 41.4744 131.014 47.5788 128.244 52.5859C125.474 57.593 121.724 61.3963 116.994 63.9957C112.285 66.5952 107.001 67.8949 101.142 67.8949C95.2612 67.8949 89.9664 66.5845 85.2576 63.9638C80.5488 61.343 76.8095 57.5398 74.0396 52.554C71.291 47.5469 69.9167 41.4531 69.9167 34.2727C69.9167 27.071 71.291 20.9666 74.0396 15.9595C76.8095 10.9524 80.5488 7.14915 85.2576 4.54971C89.9664 1.95028 95.2612 0.650566 101.142 0.650566C107.001 0.650566 112.285 1.95028 116.994 4.54971C121.724 7.14915 125.474 10.9524 128.244 15.9595C131.014 20.9666 132.399 27.071 132.399 34.2727ZM116.227 34.2727C116.227 30.0114 115.62 26.4105 114.405 23.4702C113.212 20.5298 111.486 18.3033 109.228 16.7905C106.991 15.2777 104.295 14.5213 101.142 14.5213C98.0098 14.5213 95.3145 15.2777 93.0559 16.7905C90.7974 18.3033 89.0609 20.5298 87.8464 23.4702C86.6532 26.4105 86.0566 30.0114 86.0566 34.2727C86.0566 38.5341 86.6532 42.1349 87.8464 45.0753C89.0609 48.0156 90.7974 50.2422 93.0559 51.755C95.3145 53.2678 98.0098 54.0241 101.142 54.0241C104.295 54.0241 106.991 53.2678 109.228 51.755C111.486 50.2422 113.212 48.0156 114.405 45.0753C115.62 42.1349 116.227 38.5341 116.227 34.2727ZM181.234 1.54545H197.023V43.7649C197.023 48.6442 195.861 52.8949 193.539 56.517C191.216 60.1179 187.978 62.9091 183.823 64.8906C179.668 66.8509 174.842 67.831 169.345 67.831C163.784 67.831 158.926 66.8509 154.771 64.8906C150.616 62.9091 147.388 60.1179 145.087 56.517C142.786 52.8949 141.635 48.6442 141.635 43.7649V1.54545H157.456V42.3906C157.456 44.6491 157.946 46.6626 158.926 48.4311C159.927 50.1996 161.323 51.5845 163.113 52.5859C164.903 53.5874 166.98 54.0881 169.345 54.0881C171.71 54.0881 173.777 53.5874 175.545 52.5859C177.335 51.5845 178.731 50.1996 179.732 48.4311C180.733 46.6626 181.234 44.6491 181.234 42.3906V1.54545ZM206.938 67V1.54545H233.977C238.877 1.54545 243.107 2.42969 246.665 4.19815C250.244 5.94531 253.004 8.45952 254.942 11.7408C256.881 15.0007 257.851 18.8679 257.851 23.3423C257.851 27.8807 256.86 31.7372 254.879 34.9119C252.897 38.0653 250.085 40.473 246.441 42.1349C242.798 43.7756 238.483 44.5959 233.497 44.5959H216.398V32.1314H230.557C232.943 32.1314 234.935 31.8224 236.533 31.2045C238.153 30.5653 239.378 29.6065 240.209 28.3281C241.04 27.0284 241.455 25.3665 241.455 23.3423C241.455 21.3182 241.04 19.6456 240.209 18.3246C239.378 16.9822 238.153 15.9808 236.533 15.3203C234.914 14.6385 232.922 14.2976 230.557 14.2976H222.759V67H206.938ZM243.788 37.0852L260.088 67H242.83L226.849 37.0852H243.788ZM347.643 34.2727C347.643 41.4744 346.258 47.5788 343.488 52.5859C340.718 57.593 336.968 61.3963 332.238 63.9957C327.529 66.5952 322.245 67.8949 316.386 67.8949C310.505 67.8949 305.211 66.5845 300.502 63.9638C295.793 61.343 292.054 57.5398 289.284 52.554C286.535 47.5469 285.161 41.4531 285.161 34.2727C285.161 27.071 286.535 20.9666 289.284 15.9595C292.054 10.9524 295.793 7.14915 300.502 4.54971C305.211 1.95028 310.505 0.650566 316.386 0.650566C322.245 0.650566 327.529 1.95028 332.238 4.54971C336.968 7.14915 340.718 10.9524 343.488 15.9595C346.258 20.9666 347.643 27.071 347.643 34.2727ZM331.471 34.2727C331.471 30.0114 330.864 26.4105 329.65 23.4702C328.456 20.5298 326.73 18.3033 324.472 16.7905C322.235 15.2777 319.539 14.5213 316.386 14.5213C313.254 14.5213 310.559 15.2777 308.3 16.7905C306.042 18.3033 304.305 20.5298 303.091 23.4702C301.897 26.4105 301.301 30.0114 301.301 34.2727C301.301 38.5341 301.897 42.1349 303.091 45.0753C304.305 48.0156 306.042 50.2422 308.3 51.755C310.559 53.2678 313.254 54.0241 316.386 54.0241C319.539 54.0241 322.235 53.2678 324.472 51.755C326.73 50.2422 328.456 48.0156 329.65 45.0753C330.864 42.1349 331.471 38.5341 331.471 34.2727ZM412.586 1.54545V67H399.163L373.115 29.223H372.7V67H356.88V1.54545H370.495L396.255 39.2585H396.798V1.54545H412.586ZM422.534 67V1.54545H468.173V14.3935H438.354V27.8168H465.84V40.6967H438.354V54.152H468.173V67H422.534ZM532.797 21.169C532.584 18.8253 531.635 17.0035 529.952 15.7038C528.29 14.3828 525.915 13.7223 522.825 13.7223C520.78 13.7223 519.075 13.9886 517.711 14.5213C516.348 15.054 515.325 15.7891 514.643 16.7266C513.961 17.6428 513.61 18.6974 513.589 19.8906C513.546 20.8707 513.738 21.7337 514.164 22.4794C514.611 23.2251 515.251 23.8857 516.082 24.4609C516.934 25.0149 517.956 25.505 519.15 25.9311C520.343 26.3572 521.685 26.7301 523.177 27.0497L528.802 28.3281C532.04 29.0312 534.895 29.9688 537.367 31.1406C539.86 32.3125 541.948 33.7081 543.631 35.3274C545.336 36.9467 546.625 38.8111 547.498 40.9205C548.372 43.0298 548.819 45.3949 548.841 48.0156C548.819 52.1491 547.775 55.6967 545.709 58.6584C543.642 61.62 540.67 63.8892 536.792 65.4659C532.935 67.0426 528.28 67.831 522.825 67.831C517.349 67.831 512.577 67.0107 508.507 65.37C504.437 63.7294 501.273 61.2365 499.015 57.8913C496.756 54.5462 495.595 50.3168 495.531 45.2031H510.68C510.808 47.3125 511.373 49.0703 512.374 50.4766C513.376 51.8828 514.75 52.9482 516.497 53.6726C518.265 54.397 520.311 54.7592 522.633 54.7592C524.764 54.7592 526.575 54.4716 528.067 53.8963C529.579 53.321 530.741 52.522 531.55 51.4993C532.36 50.4766 532.775 49.3047 532.797 47.9837C532.775 46.7479 532.392 45.6932 531.646 44.8196C530.9 43.9247 529.75 43.1577 528.194 42.5185C526.66 41.858 524.7 41.2507 522.314 40.6967L515.474 39.0987C509.807 37.799 505.343 35.7003 502.083 32.8026C498.823 29.8835 497.204 25.9418 497.225 20.9773C497.204 16.929 498.29 13.3814 500.485 10.3345C502.68 7.28764 505.716 4.91193 509.594 3.20739C513.471 1.50284 517.893 0.650566 522.857 0.650566C527.928 0.650566 532.328 1.51349 536.057 3.23934C539.807 4.94389 542.715 7.34091 544.782 10.4304C546.849 13.5199 547.903 17.0994 547.946 21.169H532.797ZM554.689 14.3935V1.54545H610.013V14.3935H590.165V67H574.569V14.3935H554.689ZM676.53 34.2727C676.53 41.4744 675.145 47.5788 672.375 52.5859C669.605 57.593 665.855 61.3963 661.125 63.9957C656.416 66.5952 651.132 67.8949 645.273 67.8949C639.392 67.8949 634.097 66.5845 629.388 63.9638C624.68 61.343 620.94 57.5398 618.17 52.554C615.422 47.5469 614.048 41.4531 614.048 34.2727C614.048 27.071 615.422 20.9666 618.17 15.9595C620.94 10.9524 624.68 7.14915 629.388 4.54971C634.097 1.95028 639.392 0.650566 645.273 0.650566C651.132 0.650566 656.416 1.95028 661.125 4.54971C665.855 7.14915 669.605 10.9524 672.375 15.9595C675.145 20.9666 676.53 27.071 676.53 34.2727ZM660.358 34.2727C660.358 30.0114 659.751 26.4105 658.536 23.4702C657.343 20.5298 655.617 18.3033 653.359 16.7905C651.121 15.2777 648.426 14.5213 645.273 14.5213C642.141 14.5213 639.445 15.2777 637.187 16.7905C634.928 18.3033 633.192 20.5298 631.977 23.4702C630.784 26.4105 630.188 30.0114 630.188 34.2727C630.188 38.5341 630.784 42.1349 631.977 45.0753C633.192 48.0156 634.928 50.2422 637.187 51.755C639.445 53.2678 642.141 54.0241 645.273 54.0241C648.426 54.0241 651.121 53.2678 653.359 51.755C655.617 50.2422 657.343 48.0156 658.536 45.0753C659.751 42.1349 660.358 38.5341 660.358 34.2727ZM685.766 67V1.54545H712.805C717.705 1.54545 721.935 2.50426 725.493 4.42188C729.072 6.31818 731.832 8.97088 733.771 12.38C735.71 15.7678 736.679 19.7095 736.679 24.2053C736.679 28.7223 735.688 32.6747 733.707 36.0625C731.746 39.429 728.945 42.0391 725.301 43.8928C721.658 45.7464 717.332 46.6733 712.325 46.6733H695.642V34.2088H709.385C711.771 34.2088 713.763 33.7933 715.362 32.9624C716.981 32.1314 718.206 30.9702 719.037 29.4787C719.868 27.9659 720.283 26.2081 720.283 24.2053C720.283 22.1811 719.868 20.4339 719.037 18.9638C718.206 17.4723 716.981 16.3217 715.362 15.5121C713.742 14.7024 711.75 14.2976 709.385 14.2976H701.587V67H685.766ZM23.7741 110.545V176H7.95384V110.545H23.7741ZM89.4125 110.545V176H75.9892L49.9416 138.223H49.5261V176H33.7058V110.545H47.3208L73.0808 148.259H73.6241V110.545H89.4125ZM114.222 110.545L128.859 158.486H129.403L144.04 110.545H161.746L139.662 176H118.6L96.5156 110.545H114.222ZM168.794 176V110.545H214.433V123.393H184.614V136.817H212.1V149.697H184.614V163.152H214.433V176H168.794ZM280.047 110.545V176H266.624L240.576 138.223H240.161V176H224.341V110.545H237.956L263.716 148.259H264.259V110.545H280.047ZM287.854 123.393V110.545H343.177V123.393H323.329V176H307.733V123.393H287.854ZM409.694 143.273C409.694 150.474 408.309 156.579 405.539 161.586C402.769 166.593 399.019 170.396 394.289 172.996C389.58 175.595 384.296 176.895 378.437 176.895C372.556 176.895 367.261 175.585 362.553 172.964C357.844 170.343 354.104 166.54 351.335 161.554C348.586 156.547 347.212 150.453 347.212 143.273C347.212 136.071 348.586 129.967 351.335 124.96C354.104 119.952 357.844 116.149 362.553 113.55C367.261 110.95 372.556 109.651 378.437 109.651C384.296 109.651 389.58 110.95 394.289 113.55C399.019 116.149 402.769 119.952 405.539 124.96C408.309 129.967 409.694 136.071 409.694 143.273ZM393.522 143.273C393.522 139.011 392.915 135.411 391.7 132.47C390.507 129.53 388.781 127.303 386.523 125.79C384.286 124.278 381.59 123.521 378.437 123.521C375.305 123.521 372.609 124.278 370.351 125.79C368.092 127.303 366.356 129.53 365.141 132.47C363.948 135.411 363.352 139.011 363.352 143.273C363.352 147.534 363.948 151.135 365.141 154.075C366.356 157.016 368.092 159.242 370.351 160.755C372.609 162.268 375.305 163.024 378.437 163.024C381.59 163.024 384.286 162.268 386.523 160.755C388.781 159.242 390.507 157.016 391.7 154.075C392.915 151.135 393.522 147.534 393.522 143.273ZM418.93 176V110.545H445.969C450.869 110.545 455.099 111.43 458.657 113.198C462.237 114.945 464.996 117.46 466.935 120.741C468.874 124.001 469.843 127.868 469.843 132.342C469.843 136.881 468.852 140.737 466.871 143.912C464.889 147.065 462.077 149.473 458.433 151.135C454.79 152.776 450.475 153.596 445.489 153.596H428.391V141.131H442.549C444.935 141.131 446.928 140.822 448.526 140.205C450.145 139.565 451.37 138.607 452.201 137.328C453.032 136.028 453.447 134.366 453.447 132.342C453.447 130.318 453.032 128.646 452.201 127.325C451.37 125.982 450.145 124.981 448.526 124.32C446.906 123.638 444.914 123.298 442.549 123.298H434.751V176H418.93ZM455.781 146.085L472.08 176H454.822L438.842 146.085H455.781ZM472.36 110.545H490.034L503.873 137.935H504.448L518.287 110.545H535.961L512.023 154.139V176H496.298V154.139L472.36 110.545ZM7.95384 219.545H27.5455L44.1648 260.071H44.9318L61.5511 219.545H81.1428V285H65.7379V244.794H65.1946L49.4702 284.585H39.6264L23.902 244.57H23.3587V285H7.95384V219.545ZM105.169 285H88.166L110.251 219.545H131.312L153.397 285H136.394L121.021 236.037H120.51L105.169 285ZM102.9 259.24H138.439V271.257H102.9V259.24ZM216.151 219.545V285H202.727L176.68 247.223H176.264V285H160.444V219.545H174.059L199.819 257.259H200.362V219.545H216.151ZM240.257 285H223.254L245.338 219.545H266.4L288.485 285H271.482L256.109 236.037H255.598L240.257 285ZM237.988 259.24H273.527V271.257H237.988V259.24ZM335.41 240.927C335.048 239.585 334.515 238.402 333.812 237.379C333.109 236.335 332.246 235.451 331.224 234.727C330.201 234.002 329.029 233.459 327.708 233.097C326.387 232.713 324.938 232.521 323.361 232.521C320.187 232.521 317.438 233.288 315.116 234.822C312.814 236.357 311.035 238.594 309.778 241.534C308.521 244.453 307.893 248.001 307.893 252.177C307.893 256.374 308.5 259.954 309.714 262.915C310.929 265.877 312.687 268.136 314.988 269.691C317.289 271.246 320.08 272.024 323.361 272.024C326.259 272.024 328.709 271.555 330.712 270.618C332.736 269.659 334.27 268.306 335.314 266.559C336.358 264.812 336.881 262.756 336.881 260.391L339.821 260.742H323.905V249.205H352.126V257.866C352.126 263.725 350.879 268.743 348.386 272.919C345.915 277.095 342.506 280.302 338.159 282.539C333.834 284.776 328.858 285.895 323.233 285.895C316.991 285.895 311.504 284.542 306.774 281.836C302.044 279.13 298.358 275.273 295.716 270.266C293.074 265.238 291.753 259.272 291.753 252.369C291.753 246.999 292.552 242.237 294.15 238.082C295.748 233.906 297.974 230.369 300.829 227.472C303.706 224.574 307.03 222.379 310.801 220.888C314.594 219.396 318.674 218.651 323.042 218.651C326.834 218.651 330.361 219.194 333.621 220.281C336.902 221.367 339.8 222.901 342.314 224.883C344.849 226.864 346.905 229.219 348.482 231.946C350.059 234.673 351.039 237.667 351.422 240.927H335.41ZM361.45 285V219.545H407.089V232.393H377.27V245.817H404.756V258.697H377.27V272.152H407.089V285H361.45ZM416.997 219.545H436.588L453.208 260.071H453.975L470.594 219.545H490.186V285H474.781V244.794H474.238L458.513 284.585H448.669L432.945 244.57H432.402V285H416.997V219.545ZM500.053 285V219.545H545.693V232.393H515.874V245.817H543.36V258.697H515.874V272.152H545.693V285H500.053ZM611.307 219.545V285H597.884L571.836 247.223H571.421V285H555.6V219.545H569.215L594.975 257.259H595.519V219.545H611.307ZM619.113 232.393V219.545H674.436V232.393H654.589V285H638.993V232.393H619.113ZM22.1122 394H5.10938L27.1939 328.545H48.2557L70.3402 394H53.3374L37.9645 345.037H37.4531L22.1122 394ZM19.843 368.24H55.3828V380.257H19.843V368.24ZM77.3874 394V328.545H104.426C109.326 328.545 113.556 329.504 117.114 331.422C120.694 333.318 123.453 335.971 125.392 339.38C127.331 342.768 128.3 346.71 128.3 351.205C128.3 355.722 127.309 359.675 125.328 363.062C123.368 366.429 120.566 369.039 116.922 370.893C113.279 372.746 108.953 373.673 103.946 373.673H87.2631V361.209H101.006C103.392 361.209 105.385 360.793 106.983 359.962C108.602 359.131 109.827 357.97 110.658 356.479C111.489 354.966 111.904 353.208 111.904 351.205C111.904 349.181 111.489 347.434 110.658 345.964C109.827 344.472 108.602 343.322 106.983 342.512C105.363 341.702 103.371 341.298 101.006 341.298H93.2077V394H77.3874ZM136.098 394V328.545H163.137C168.037 328.545 172.267 329.504 175.825 331.422C179.404 333.318 182.164 335.971 184.103 339.38C186.042 342.768 187.011 346.71 187.011 351.205C187.011 355.722 186.02 359.675 184.039 363.062C182.078 366.429 179.277 369.039 175.633 370.893C171.99 372.746 167.664 373.673 162.657 373.673H145.974V361.209H159.717C162.103 361.209 164.096 360.793 165.694 359.962C167.313 359.131 168.538 357.97 169.369 356.479C170.2 354.966 170.615 353.208 170.615 351.205C170.615 349.181 170.2 347.434 169.369 345.964C168.538 344.472 167.313 343.322 165.694 342.512C164.074 341.702 162.082 341.298 159.717 341.298H151.919V394H136.098Z" fill="white"/>
</g>
<defs>
<filter id="filter0_d_7_61" x="0.693878" y="0.650574" width="739.985" height="401.349" filterUnits="userSpaceOnUse" color-interpolation-filters="sRGB">
<feFlood flood-opacity="0" result="BackgroundImageFix"/>
<feColorMatrix in="SourceAlpha" type="matrix" values="0 0 0 0 0 0 0 0 0 0 0 0 0 0 0 0 0 0 127 0" result="hardAlpha"/>
<feOffset dy="4"/>
<feGaussianBlur stdDeviation="2"/>
<feComposite in2="hardAlpha" operator="out"/>
<feColorMatrix type="matrix" values="0 0 0 0 0 0 0 0 0 0 0 0 0 0 0 0 0 0 0.25 0"/>
<feBlend mode="normal" in2="BackgroundImageFix" result="effect1_dropShadow_7_61"/>
<feBlend mode="normal" in="SourceGraphic" in2="effect1_dropShadow_7_61" result="shape"/>
</filter>
</defs>
</svg>
